<svg
width="40"
height="40"
viewBox="0 0 40 40"
fill="none"
xmlns="http://www.w3.org/2000/svg">
<mask
  id="mask0_355_439"
  maskUnits="userSpaceOnUse"
  x="0"
  y="0"
  width="40"
  height="40">
  <path
    d="M26.0543 0H13.9457C9.93 0 7.92233 0 5.761 0.683329C3.401 1.54234 1.54233 3.401 0.683334 5.761C0 7.92233 0 9.93033 0 13.9457V26.0543C0 30.07 0 32.0773 0.683334 34.239C1.54233 36.599 3.401 38.4577 5.761 39.3163C7.92233 40 9.93 40 13.9457 40H26.0543C30.07 40 32.0773 40 34.239 39.3163C36.599 38.4577 38.4577 36.599 39.3167 34.239C40 32.0773 40 30.07 40 26.0543V13.9457C40 9.93033 40 7.92233 39.3167 5.761C38.4577 3.401 36.599 1.54234 34.239 0.683329C32.0773 0 30.07 0 26.0543 0Z"
    fill="#C4C4C4"
  />
</mask>
<g mask="url(#mask0_355_439)">
  <rect width="40" height="40" fill="url(#paint0_linear_355_439)" />
  <path
    fillRule="evenodd"
    d="M18.7265 10.9146H22.2991L26.5213 7.66675H21.3247L18.7265 10.9146ZM14.1795 29.4274H8.33331L17.7521 12.5385H24.2478L25.9231 21.2501C30.4307 20.3334 33.6666 20.3334 33.6666 20.3334C31.403 20.7861 28.8106 21.7253 26.2332 22.8623L27.4957 29.4274H21.3248L20.8863 25.4813C18.1242 26.9563 15.7102 28.4215 14.1795 29.4274ZM16.7778 23.9061L20.1025 18.06L20.6752 22.5921C19.4827 22.7355 18.6481 23.1023 17.7687 23.4887L17.7687 23.4887L17.7686 23.4887C17.5245 23.596 17.2769 23.7048 17.0173 23.8108C16.942 23.8433 16.8626 23.8752 16.7778 23.9061Z"
    fill="url(#paint1_linear_355_439)"
  />
</g>
<defs>
  <linearGradient
    id="paint0_linear_355_439"
    x1="20"
    y1="0"
    x2="20"
    y2="40"
    gradientUnits="userSpaceOnUse">
    <stop stopColor="#2765D9" />
    <stop offset="1" stopColor="#022C90" />
  </linearGradient>
  <linearGradient
    id="paint1_linear_355_439"
    x1="21"
    y1="7.66675"
    x2="21"
    y2="29.4274"
    gradientUnits="userSpaceOnUse">
    <stop stopColor="#FEBB01" />
    <stop offset="0.729243" stopColor="#FFBD05" />
    <stop offset="1" stopColor="#F6C84A" />
  </linearGradient>
</defs>
</svg>
