<svg width="90" height="90" viewBox="0 0 90 90" fill="none" xmlns="http://www.w3.org/2000/svg">
  <path fill-rule="evenodd" clip-rule="evenodd" d="M37.9478 21.3246H49.0299L62.1269 11.25H46.0075L37.9478 21.3246ZM23.8433 78.75H5.70898L34.9254 26.3619H55.0747L60.2713 53.3846C74.2534 50.5411 84.2911 50.5411 84.2911 50.5411C77.2693 51.9454 69.228 54.8587 61.2331 58.3856L65.1493 78.75H46.0075L44.6475 66.5097C36.0796 71.0848 28.5914 75.6299 23.8433 78.75ZM31.903 61.6232L42.2159 43.4888L43.9926 57.5472C40.2933 57.9921 37.7046 59.1296 34.9768 60.3283C34.2194 60.6611 33.4514 60.9986 32.6458 61.3274C32.4123 61.4283 32.1661 61.5271 31.903 61.6232Z" fill="#FEBB01"/>
  </svg>
