<svg
width="90"
height="90"
viewBox="0 0 101 101"
fill="none"
xmlns="http://www.w3.org/2000/svg">
<rect
  x="1.0875"
  y="0.8375"
  width="98.825"
  height="98.825"
  rx="22.6125"
  fill="white"
/>
<rect
  x="1.0875"
  y="0.8375"
  width="98.825"
  height="98.825"
  rx="22.6125"
  stroke="#D6D6D6"
  strokeWidth="1.675"
/>
<path
  fillRule="evenodd"
  clipRule="evenodd"
  d="M47.3003 27.4228H56.2766L66.8849 19.2625H53.8285L47.3003 27.4228ZM35.876 73.9362H21.1875L44.8522 31.5028H61.1728L65.382 53.3906C76.7072 51.0874 84.8375 51.0874 84.8375 51.0874C79.15 52.2249 72.6367 54.5847 66.1609 57.4414L69.333 73.9362H53.8285L52.7269 64.0217C45.7871 67.7275 39.7218 71.4089 35.876 73.9362ZM42.4041 60.0637L50.7574 45.3752L52.1964 56.7623C49.2001 57.1226 47.1033 58.044 44.8938 59.0149L44.8933 59.0151C44.28 59.2846 43.6581 59.5579 43.0058 59.8241C42.8166 59.9059 42.6172 59.9859 42.4041 60.0637Z"
  fill="url(#paint0_linear_3_128)"
/>
<defs>
  <linearGradient
    id="paint0_linear_3_128"
    x1="53.0125"
    y1="19.2625"
    x2="53.0125"
    y2="73.9362"
    gradientUnits="userSpaceOnUse">
    <stop stopColor="#FEBB01" />
    <stop offset="0.729243" stopColor="#FFBD05" />
    <stop offset="1" stopColor="#F6C84A" />
  </linearGradient>
</defs>
</svg>
